# Blender v2.79 (sub 0) OBJ File: 'cannon_turret.blend'
# www.blender.org
o Cube_Cube.001
v -2.000000 1.000000 2.000000
v -2.000000 5.000000 2.000000
v -1.000000 2.000000 -6.000000
v -1.000000 4.000000 -6.000000
v 2.000000 1.000000 2.000000
v 2.000000 5.000000 2.000000
v 1.000000 2.000000 -6.000000
v 1.000000 4.000000 -6.000000
v -2.000000 5.000000 -6.000000
v -2.000000 1.000000 -6.000000
v 2.000000 1.000000 -6.000000
v 2.000000 5.000000 -6.000000
v -1.000000 4.000000 -1.000000
v -1.000000 2.000000 -1.000000
v 1.000000 2.000000 -1.000000
v 1.000000 4.000000 -1.000000
v 2.000000 0.000000 1.000000
v 2.000000 3.000000 1.000000
v 2.000000 0.000000 -1.000000
v 2.000000 3.000000 -1.000000
v 3.000000 0.000000 1.000000
v 3.000000 3.000000 1.000000
v 3.000000 0.000000 -1.000000
v 3.000000 3.000000 -1.000000
v -2.000000 0.000000 1.000000
v -2.000000 3.000000 1.000000
v -2.000000 0.000000 -1.000000
v -2.000000 3.000000 -1.000000
v -3.000000 0.000000 1.000000
v -3.000000 3.000000 1.000000
v -3.000000 0.000000 -1.000000
v -3.000000 3.000000 -1.000000
vt 0.000142 0.749929
vt 0.000142 0.500000
vt 0.500000 0.500000
vt 0.500000 0.750000
vt 0.562500 0.187500
vt 0.562500 0.062500
vt 0.625000 0.125000
vt 0.625000 0.125000
vt 0.500000 0.000143
vt 0.500000 0.250071
vt 0.000142 0.250071
vt 0.000142 0.000142
vt 0.750000 0.750000
vt 0.750000 1.000000
vt 0.500000 1.000000
vt 0.500000 0.750000
vt 0.500000 0.999857
vt 0.000142 0.999858
vt 0.687500 0.187500
vt 0.687500 0.062500
vt 0.750000 -0.000000
vt 0.750000 0.250000
vt 0.500000 -0.000000
vt 0.500000 0.250000
vt 0.625000 0.125000
vt 0.625000 0.125000
vt 0.814721 0.752961
vt 0.814721 0.997039
vt 0.997779 0.997039
vt 0.997779 0.752961
vt 0.997779 0.997039
vt 0.997779 0.752961
vt 0.814721 0.997039
vt 0.814721 0.752961
vt 0.814721 0.752961
vt 0.997779 0.752961
vt 0.997779 0.997039
vt 0.814721 0.997039
vt 0.997779 0.752961
vt 0.997779 0.997039
vt 0.814721 0.752961
vt 0.814721 0.997039
vn -1.0000 0.0000 0.0000
vn 1.0000 0.0000 0.0000
vn 0.0000 0.0000 1.0000
vn 0.0000 -1.0000 0.0000
vn 0.0000 1.0000 0.0000
vn 0.0000 0.0000 -1.0000
s off
f 1/1/1 2/2/1 9/3/1 10/4/1
f 8/5/1 7/6/1 15/7/1 16/8/1
f 11/9/2 12/10/2 6/11/2 5/12/2
f 5/13/3 6/14/3 2/15/3 1/16/3
f 10/4/4 11/17/4 5/18/4 1/1/4
f 12/10/5 9/3/5 2/2/5 6/11/5
f 4/19/6 3/20/6 10/21/6 9/22/6
f 3/20/6 7/6/6 11/23/6 10/21/6
f 8/5/6 4/19/6 9/22/6 12/24/6
f 7/6/6 8/5/6 12/24/6 11/23/6
f 14/25/6 13/26/6 16/8/6 15/7/6
f 7/6/5 3/20/5 14/25/5 15/7/5
f 4/19/4 8/5/4 16/8/4 13/26/4
f 3/20/2 4/19/2 13/26/2 14/25/2
f 17/27/1 18/28/1 20/29/1 19/30/1
f 19/30/6 20/29/6 24/31/6 23/32/6
f 23/32/2 24/31/2 22/33/2 21/34/2
f 21/34/3 22/33/3 18/28/3 17/27/3
f 19/30/4 23/32/4 21/34/4 17/27/4
f 24/31/5 20/29/5 18/28/5 22/33/5
f 25/35/2 27/36/2 28/37/2 26/38/2
f 27/36/6 31/39/6 32/40/6 28/37/6
f 31/39/1 29/41/1 30/42/1 32/40/1
f 29/41/3 25/35/3 26/38/3 30/42/3
f 27/36/4 25/35/4 29/41/4 31/39/4
f 32/40/5 30/42/5 26/38/5 28/37/5
